<svg xmlns="http://www.w3.org/2000/svg" width="200" height="100" viewBox="0 0 200 100">
  <!-- Definitions for gradients and filters -->
  <defs>
    <!-- Main gradient for the logo -->
    <linearGradient id="logoGradient" x1="0%" y1="0%" x2="100%" y2="100%">
      <stop offset="0%" stop-color="#00C9FF" />
      <stop offset="100%" stop-color="#92FE9D" />
    </linearGradient>
    
    <!-- Glow filter for the logo -->
    <filter id="glow" x="-20%" y="-20%" width="140%" height="140%">
      <feGaussianBlur stdDeviation="2" result="blur" />
      <feComposite in="SourceGraphic" in2="blur" operator="over" />
    </filter>
  </defs>
  
  <!-- Logo background -->
  <rect width="200" height="100" fill="transparent" />
  
  <!-- Main logo shape - a satellite -->
  <g transform="translate(100, 45)">
    <!-- Satellite body -->
    <rect x="-20" y="-10" width="40" height="20" rx="5" ry="5" fill="url(#logoGradient)" stroke="#FFFFFF" stroke-width="1" />
    
    <!-- Satellite solar panels -->
    <rect x="-50" y="-7" width="25" height="14" fill="#FFFFFF" opacity="0.8" stroke="url(#logoGradient)" stroke-width="1" />
    <rect x="25" y="-7" width="25" height="14" fill="#FFFFFF" opacity="0.8" stroke="url(#logoGradient)" stroke-width="1" />
    
    <!-- Panel details -->
    <line x1="-50" y1="-2" x2="-25" y2="-2" stroke="url(#logoGradient)" stroke-width="1" />
    <line x1="-50" y1="3" x2="-25" y2="3" stroke="url(#logoGradient)" stroke-width="1" />
    <line x1="25" y1="-2" x2="50" y2="-2" stroke="url(#logoGradient)" stroke-width="1" />
    <line x1="25" y1="3" x2="50" y2="3" stroke="url(#logoGradient)" stroke-width="1" />
    
    <!-- Satellite dish -->
    <circle cx="0" cy="-15" r="5" fill="none" stroke="#FFFFFF" stroke-width="1" />
    <line x1="0" y1="-10" x2="0" y2="-15" stroke="#FFFFFF" stroke-width="1" />
    
    <!-- Signal waves -->
    <path d="M0,-20 Q10,-25 20,-20" fill="none" stroke="#FFFFFF" stroke-width="1" opacity="0.6">
      <animate attributeName="opacity" values="0.6;0.2;0.6" dur="2s" repeatCount="indefinite" />
    </path>
    <path d="M0,-20 Q15,-30 30,-20" fill="none" stroke="#FFFFFF" stroke-width="1" opacity="0.4">
      <animate attributeName="opacity" values="0.4;0.1;0.4" dur="2s" repeatCount="indefinite" begin="0.5s" />
    </path>
  </g>
  
  <!-- Company name -->
  <text x="100" y="85" font-family="Arial, sans-serif" font-size="16" font-weight="bold" text-anchor="middle" fill="#FFFFFF">ORBITLINK</text>
</svg>