<svg xmlns="http://www.w3.org/2000/svg" width="200" height="100" viewBox="0 0 200 100">
  <!-- Definitions for gradients and filters -->
  <defs>
    <!-- Main gradient for the logo -->
    <linearGradient id="logoGradient" x1="0%" y1="0%" x2="100%" y2="100%">
      <stop offset="0%" stop-color="#4776E6" />
      <stop offset="100%" stop-color="#8E54E9" />
    </linearGradient>
    
    <!-- Star glow filter -->
    <filter id="starGlow" x="-100%" y="-100%" width="300%" height="300%">
      <feGaussianBlur stdDeviation="1" result="blur" />
      <feComposite in="SourceGraphic" in2="blur" operator="over" />
    </filter>
    
    <!-- Galaxy spiral pattern -->
    <pattern id="galaxyPattern" patternUnits="userSpaceOnUse" width="60" height="60">
      <path d="M30,30 C40,20 50,25 55,35 C45,40 35,45 30,30" fill="#FFFFFF" opacity="0.2" />
      <path d="M30,30 C20,40 25,50 35,55 C40,45 45,35 30,30" fill="#FFFFFF" opacity="0.2" />
      <path d="M30,30 C20,20 10,25 5,35 C15,40 25,45 30,30" fill="#FFFFFF" opacity="0.2" />
      <path d="M30,30 C40,40 35,50 25,55 C20,45 15,35 30,30" fill="#FFFFFF" opacity="0.2" />
    </pattern>
  </defs>
  
  <!-- Logo background -->
  <rect width="200" height="100" fill="transparent" />
  
  <!-- Main logo shape - a spiral galaxy -->
  <g transform="translate(100, 45)">
    <!-- Galaxy core -->
    <circle cx="0" cy="0" r="20" fill="url(#logoGradient)" filter="url(#starGlow)" />
    
    <!-- Galaxy spiral arms -->
    <ellipse cx="0" cy="0" rx="35" ry="25" fill="url(#galaxyPattern)" stroke="none" transform="rotate(45)" />
    
    <!-- Stars in galaxy -->
    <circle cx="-25" cy="-15" r="1" fill="#FFFFFF" opacity="0.8">
      <animate attributeName="opacity" values="0.8;0.3;0.8" dur="3s" repeatCount="indefinite" begin="0s" />
    </circle>
    
    <circle cx="20" cy="-20" r="1" fill="#FFFFFF" opacity="0.8">
      <animate attributeName="opacity" values="0.8;0.3;0.8" dur="2.5s" repeatCount="indefinite" begin="0.2s" />
    </circle>
    
    <circle cx="-15" cy="25" r="1" fill="#FFFFFF" opacity="0.8">
      <animate attributeName="opacity" values="0.8;0.3;0.8" dur="3.5s" repeatCount="indefinite" begin="0.5s" />
    </circle>
    
    <circle cx="30" cy="10" r="1" fill="#FFFFFF" opacity="0.8">
      <animate attributeName="opacity" values="0.8;0.3;0.8" dur="2.8s" repeatCount="indefinite" begin="0.7s" />
    </circle>
    
    <circle cx="-30" cy="5" r="1" fill="#FFFFFF" opacity="0.8">
      <animate attributeName="opacity" values="0.8;0.3;0.8" dur="3.2s" repeatCount="indefinite" begin="1s" />
    </circle>
    
    <circle cx="5" cy="-30" r="1" fill="#FFFFFF" opacity="0.8">
      <animate attributeName="opacity" values="0.8;0.3;0.8" dur="2.7s" repeatCount="indefinite" begin="1.2s" />
    </circle>
    
    <!-- Bright stars -->
    <circle cx="-22" cy="-18" r="1.5" fill="#FFFFFF" filter="url(#starGlow)">
      <animate attributeName="opacity" values="1;0.5;1" dur="2s" repeatCount="indefinite" begin="0.3s" />
    </circle>
    
    <circle cx="25" cy="15" r="1.5" fill="#FFFFFF" filter="url(#starGlow)">
      <animate attributeName="opacity" values="1;0.5;1" dur="2.2s" repeatCount="indefinite" begin="0.8s" />
    </circle>
  </g>
  
  <!-- Company name -->
  <text x="100" y="85" font-family="Arial, sans-serif" font-size="16" font-weight="bold" text-anchor="middle" fill="#FFFFFF">GALAXYCORE</text>
</svg>