<svg width="1000" height="1000" viewBox="0 0 1000 1000" xmlns="http://www.w3.org/2000/svg">
  <!-- Small stars layer -->
  <g fill="#FFFFFF" opacity="0.7">
    <circle cx="50" cy="150" r="1" />
    <circle cx="120" cy="230" r="1.2" />
    <circle cx="200" cy="80" r="0.8" />
    <circle cx="280" cy="300" r="1" />
    <circle cx="350" cy="180" r="1.1" />
    <circle cx="420" cy="120" r="0.9" />
    <circle cx="500" cy="250" r="1" />
    <circle cx="580" cy="100" r="1.2" />
    <circle cx="650" cy="220" r="0.8" />
    <circle cx="720" cy="170" r="1" />
    <circle cx="800" cy="280" r="1.1" />
    <circle cx="880" cy="130" r="0.9" />
    <circle cx="950" cy="200" r="1" />
    <circle cx="30" cy="350" r="1.2" />
    <circle cx="100" cy="420" r="0.8" />
    <circle cx="180" cy="380" r="1" />
    <circle cx="250" cy="450" r="1.1" />
    <circle cx="320" cy="400" r="0.9" />
    <circle cx="400" cy="470" r="1" />
    <circle cx="480" cy="390" r="1.2" />
    <circle cx="550" cy="460" r="0.8" />
    <circle cx="630" cy="410" r="1" />
    <circle cx="700" cy="480" r="1.1" />
    <circle cx="780" cy="430" r="0.9" />
    <circle cx="850" cy="500" r="1" />
    <circle cx="930" cy="440" r="1.2" />
    <circle cx="70" cy="550" r="0.8" />
    <circle cx="150" cy="600" r="1" />
    <circle cx="220" cy="530" r="1.1" />
    <circle cx="300" cy="620" r="0.9" />
    <circle cx="370" cy="570" r="1" />
    <circle cx="450" cy="640" r="1.2" />
    <circle cx="520" cy="590" r="0.8" />
    <circle cx="600" cy="660" r="1" />
    <circle cx="670" cy="610" r="1.1" />
    <circle cx="750" cy="680" r="0.9" />
    <circle cx="820" cy="630" r="1" />
    <circle cx="900" cy="700" r="1.2" />
    <circle cx="40" cy="750" r="0.8" />
    <circle cx="120" cy="720" r="1" />
    <circle cx="190" cy="790" r="1.1" />
    <circle cx="270" cy="740" r="0.9" />
    <circle cx="340" cy="810" r="1" />
    <circle cx="420" cy="760" r="1.2" />
    <circle cx="490" cy="830" r="0.8" />
    <circle cx="570" cy="780" r="1" />
    <circle cx="640" cy="850" r="1.1" />
    <circle cx="720" cy="800" r="0.9" />
    <circle cx="790" cy="870" r="1" />
    <circle cx="870" cy="820" r="1.2" />
    <circle cx="940" cy="890" r="0.8" />
    <circle cx="80" cy="940" r="1" />
    <circle cx="160" cy="970" r="1.1" />
    <circle cx="230" cy="920" r="0.9" />
    <circle cx="310" cy="990" r="1" />
    <circle cx="380" cy="940" r="1.2" />
    <circle cx="460" cy="980" r="0.8" />
    <circle cx="530" cy="930" r="1" />
    <circle cx="610" cy="990" r="1.1" />
    <circle cx="680" cy="940" r="0.9" />
    <circle cx="760" cy="980" r="1" />
    <circle cx="830" cy="930" r="1.2" />
    <circle cx="910" cy="990" r="0.8" />
    <circle cx="980" cy="940" r="1" />
  </g>
</svg>